<svg xmlns="http://www.w3.org/2000/svg" xmlns:xlink="http://www.w3.org/1999/xlink" width="1080" zoomAndPan="magnify" viewBox="0 0 810 809.999993" height="1080" preserveAspectRatio="xMidYMid meet" version="1.0"><defs><filter x="0%" y="0%" width="100%" height="100%" id="c69fe3f7b3"><feColorMatrix values="0 0 0 0 1 0 0 0 0 1 0 0 0 0 1 0 0 0 1 0" color-interpolation-filters="sRGB"/></filter><clipPath id="917ba6e21d"><path d="M 36.914062 236.25 L 367.664062 236.25 L 367.664062 567 L 36.914062 567 Z M 36.914062 236.25 " clip-rule="nonzero"/></clipPath><clipPath id="3b52d4d9fd"><path d="M 330.949219 236.25 L 606.949219 236.25 L 606.949219 560.25 L 330.949219 560.25 Z M 330.949219 236.25 " clip-rule="nonzero"/></clipPath><mask id="da5b481514"><g filter="url(#c69fe3f7b3)"><rect x="-81" width="972" fill="#000000" y="-80.999999" height="971.999992" fill-opacity="0.1569"/></g></mask><clipPath id="d122b42654"><path d="M 0.164062 0.25 L 330.914062 0.25 L 330.914062 331 L 0.164062 331 Z M 0.164062 0.25 " clip-rule="nonzero"/></clipPath><clipPath id="bff77cf894"><rect x="0" width="333" y="0" height="333"/></clipPath><mask id="f69d7dc669"><g filter="url(#c69fe3f7b3)"><rect x="-81" width="972" fill="#000000" y="-80.999999" height="971.999992" fill-opacity="0.1569"/></g></mask><clipPath id="46c477c33f"><rect x="0" width="151" y="0" height="34"/></clipPath><mask id="3f5068ff13"><g filter="url(#c69fe3f7b3)"><rect x="-81" width="972" fill="#000000" y="-80.999999" height="971.999992" fill-opacity="0.1569"/></g></mask><clipPath id="351c15daaf"><rect x="0" width="159" y="0" height="35"/></clipPath><mask id="a0d85a2a98"><g filter="url(#c69fe3f7b3)"><rect x="-81" width="972" fill="#000000" y="-80.999999" height="971.999992" fill-opacity="0.1569"/></g></mask><clipPath id="df1117319f"><path d="M 0.199219 0.398438 L 276.199219 0.398438 L 276.199219 324.25 L 0.199219 324.25 Z M 0.199219 0.398438 " clip-rule="nonzero"/></clipPath><clipPath id="1be00c812f"><rect x="0" width="277" y="0" height="325"/></clipPath><mask id="c5d0c0f7d0"><g filter="url(#c69fe3f7b3)"><rect x="-81" width="972" fill="#000000" y="-80.999999" height="971.999992" fill-opacity="0.1569"/></g></mask><clipPath id="1fb55a9ff1"><path d="M 0.601562 0 L 227.160156 0 L 227.160156 384.238281 L 0.601562 384.238281 Z M 0.601562 0 " clip-rule="nonzero"/></clipPath><clipPath id="c70fe33204"><rect x="0" width="228" y="0" height="385"/></clipPath><mask id="ea66e993af"><g filter="url(#c69fe3f7b3)"><rect x="-81" width="972" fill="#000000" y="-80.999999" height="971.999992" fill-opacity="0.1569"/></g></mask><clipPath id="d2902d28d5"><rect x="0" width="139" y="0" height="28"/></clipPath></defs><g clip-path="url(#917ba6e21d)"><path fill="#ffffff" d="M 202.289062 567 C 110.925781 567 36.914062 492.480469 36.914062 401.625 C 36.914062 310.769531 110.925781 236.25 202.289062 236.25 C 293.652344 236.25 367.664062 310.261719 367.664062 401.625 C 367.664062 492.988281 293.144531 567 202.289062 567 Z M 202.289062 246.457031 C 116.539062 246.457031 47.121094 315.875 47.121094 401.625 C 47.121094 487.375 116.539062 556.792969 202.289062 556.792969 C 288.039062 556.792969 357.457031 487.375 357.457031 401.625 C 357.457031 315.875 287.527344 246.457031 202.289062 246.457031 Z M 202.289062 246.457031 " fill-opacity="1" fill-rule="nonzero"/></g><path strokeLinecap="butt" transform="matrix(0.751204, 0, 0, 0.75, 44.414063, 403.5)" fill="none" strokeLinejoin="miter" d="M -0.000000486671 0.000000399383 L 155.755205 0.000000399383 " stroke="#ffffff" strokeWidth="11" stroke-opacity="1" stroke-miterlimit="4"/><path strokeLinecap="butt" transform="matrix(0.748661, -0.000000000000000512, 0.000000000000000513, 0.75, 241.436711, 401.625)" fill="none" strokeLinejoin="miter" d="M 0.00105448 0.000000273611 L 166.303156 0.000000273611 " stroke="#ffffff" strokeWidth="11" stroke-opacity="1" stroke-miterlimit="4"/><g clip-path="url(#3b52d4d9fd)"><path fill="#ffffff" d="M 582.480469 245.296875 L 582.480469 560.015625 L 520.195312 560.015625 L 367.46875 260.976562 L 367.46875 551.203125 L 391.9375 551.203125 L 391.9375 560.015625 L 330.949219 560.015625 L 330.949219 551.203125 L 355.417969 551.203125 L 355.417969 245.296875 L 330.949219 245.296875 L 330.949219 236.484375 L 453.792969 236.484375 L 570.429688 468.476562 L 570.429688 245.226562 L 545.960938 245.226562 L 545.960938 236.484375 L 606.949219 236.484375 L 606.949219 245.296875 Z M 582.480469 245.296875 " fill-opacity="1" fill-rule="nonzero"/></g><path strokeLinecap="butt" transform="matrix(0.341918, 0.667092, -0.667436, 0.342094, 601.664037, 240.359144)" fill="none" strokeLinejoin="miter" d="M 0.000289721 0.00011056 L 484.262059 -0.000517269 " stroke="#ffffff" strokeWidth="15" stroke-opacity="1" stroke-miterlimit="4"/><path strokeLinecap="butt" transform="matrix(0.752224, 0, 0, 0.75, 577.56619, 396.75)" fill="none" strokeLinejoin="miter" d="M 0.000286892 -0.000000053395 L 147.57837 -0.000000053395 " stroke="#ffffff" strokeWidth="9" stroke-opacity="1" stroke-miterlimit="4"/><g mask="url(#da5b481514)"><g transform="matrix(1, 0, 0, 1, 27, 230)"><g clip-path="url(#bff77cf894)"><g clip-path="url(#d122b42654)"><path fill="#ffffff" d="M 165.539062 331 C 74.175781 331 0.164062 256.480469 0.164062 165.625 C 0.164062 74.769531 74.175781 0.25 165.539062 0.25 C 256.902344 0.25 330.914062 74.261719 330.914062 165.625 C 330.914062 256.988281 256.394531 331 165.539062 331 Z M 165.539062 10.457031 C 79.789062 10.457031 10.371094 79.875 10.371094 165.625 C 10.371094 251.375 79.789062 320.792969 165.539062 320.792969 C 251.289062 320.792969 320.707031 251.375 320.707031 165.625 C 320.707031 79.875 250.777344 10.457031 165.539062 10.457031 Z M 165.539062 10.457031 " fill-opacity="1" fill-rule="nonzero"/></g></g></g></g><g mask="url(#f69d7dc669)"><g transform="matrix(1, 0, 0, 1, 18, 380)"><g clip-path="url(#46c477c33f)"><path strokeLinecap="butt" transform="matrix(0.751204, 0, 0, 0.75, 16.664064, 17.5)" fill="none" strokeLinejoin="miter" d="M -0.00000241758 -0.00000000308631 L 155.755203 -0.00000000308631 " stroke="#ffffff" strokeWidth="11" stroke-opacity="1" stroke-miterlimit="4"/></g></g></g><g mask="url(#3f5068ff13)"><g transform="matrix(1, 0, 0, 1, 215, 378)"><g clip-path="url(#351c15daaf)"><path strokeLinecap="butt" transform="matrix(0.748661, 0, 0, 0.75, 16.686711, 17.625)" fill="none" strokeLinejoin="miter" d="M 0.00105446 -0.000000128858 L 166.303156 -0.000000128858 " stroke="#ffffff" strokeWidth="11" stroke-opacity="1" stroke-miterlimit="4"/></g></g></g><g mask="url(#a0d85a2a98)"><g transform="matrix(1, 0, 0, 1, 321, 230)"><g clip-path="url(#1be00c812f)"><g clip-path="url(#df1117319f)"><path fill="#ffffff" d="M 251.730469 9.296875 L 251.730469 324.015625 L 189.445312 324.015625 L 36.71875 24.976562 L 36.71875 315.203125 L 61.1875 315.203125 L 61.1875 324.015625 L 0.199219 324.015625 L 0.199219 315.203125 L 24.667969 315.203125 L 24.667969 9.296875 L 0.199219 9.296875 L 0.199219 0.484375 L 123.042969 0.484375 L 239.679688 232.476562 L 239.679688 9.226562 L 215.210938 9.226562 L 215.210938 0.484375 L 276.199219 0.484375 L 276.199219 9.296875 Z M 251.730469 9.296875 " fill-opacity="1" fill-rule="nonzero"/></g></g></g></g><g mask="url(#c5d0c0f7d0)"><g transform="matrix(1, 0, 0, 1, 561, 204)"><g clip-path="url(#c70fe33204)"><g clip-path="url(#1fb55a9ff1)"><path strokeLinecap="butt" transform="matrix(0.341918, 0.667092, -0.667436, 0.342094, 30.913978, 30.359129)" fill="none" strokeLinejoin="miter" d="M 0.000343238 0.0000488146 L 484.262113 -0.000579014 " stroke="#ffffff" strokeWidth="15" stroke-opacity="1" stroke-miterlimit="4"/></g></g></g></g><g mask="url(#ea66e993af)"><g transform="matrix(1, 0, 0, 1, 554, 377)"><g clip-path="url(#d2902d28d5)"><path strokeLinecap="butt" transform="matrix(0.752224, 0, 0, 0.75, 13.816186, 13.75)" fill="none" strokeLinejoin="miter" d="M 0.00029294 -0.000000455864 L 147.578376 -0.000000455864 " stroke="#ffffff" strokeWidth="9" stroke-opacity="1" stroke-miterlimit="4"/></g></g></g></svg>